<svg xmlns="http://www.w3.org/2000/svg" version="1.1" xmlns:xlink="http://www.w3.org/1999/xlink" xmlns:svgjs="http://svgjs.dev/svgjs" width="100%" height="100%" viewBox="0 0 1000 600"><rect width="1000" height="600" x="0" y="0" fill="black"/><g><circle r="166.66666666666666" cx="322.32001749674475" cy="344.5422524489139" fill="yellow" transform="matrix(0.8030665010690561,0,0,0.8030665010690561,0,23.3096626700965)"/><path d="M291.9104598394992 409.88453620500184L312.448356383794 404.0776904558709L312.448356383794 281.2476216887269L276.8737855838548 285.006790252638L261.8371113282104 311.87109242888073L251.9349112086397 309.6400411673725L260.7674292165284 269.87842895884944L274.8261083986349 270.8258616863392L374.85666701392785 270.8258616863392L388.3957863132174 269.5422431523208L392.70507710599355 309.9456646278531L383.1390627929515 312.84908750241857L370.1195033764789 285.1290396368302L333.077939966233 281.0336852663905L333.077939966233 404.16937749401507L356.5803840771893 409.88453620500184L354.6549562761617 419.54223755618807L289.98503203847156 419.54223755618807L291.9104598394992 409.88453620500184Z " fill="black" transform="matrix(0.8030665010690561,0,0,0.8030665010690561,0,23.3096626700965)"/><path d="M600.9832455826372 376.02140850521647L615.7093220266017 371.8577857011193L615.7093220266017 283.7862064923494L590.2016539004488 286.48160441289644L579.4200622182605 305.7438383329036L572.3199896470633 304.144130623961L578.6530790701374 275.6342713180119L588.7334290168988 276.3135992492066L660.4573102685296 276.3135992492066L670.1651255433455 275.39321947145885L673.2549719400702 304.3632686662819L666.3959512154261 306.44508006833047L657.0606706125557 286.5692596298248L630.5011398832625 283.6328098627247L630.5011398832625 371.92352711381557L647.3528553377397 376.02140850521647L645.972285671118 382.9461706425569L599.6026759160154 382.9461706425569L600.9832455826372 376.02140850521647ZM692.2761540135243 323.1653126974152L680.4207859239636 317.2266717505188L681.1001138551585 313.52323883529556L702.2250211348933 308.9870813592529L705.5997469866352 324.326744321716Q710.7714047854083 315.38591219502325 715.1103380233623 311.79204830096046Q719.4711850655482 308.22009821112977 724.7085842770177 308.22009821112977L724.7085842770177 308.22009821112977Q726.5712576367453 308.22009821112977 728.7626380599543 308.7460295126999Q730.9540184831633 309.2938746185022 732.7947780386589 310.3676510258746L732.7947780386589 310.3676510258746Q734.8108480280112 311.441427433247 736.0818486734725 313.15070416335004Q737.3528493189336 314.838067089221 737.3528493189336 317.0075337081979L737.3528493189336 317.0075337081979Q737.3528493189336 319.3961383694957 735.9284520438478 321.96005346465023Q734.504054768762 324.54588236403686 732.2907605413209 326.2332452899078Q730.0993801181119 327.9425220200108 727.951827303367 327.9425220200108L727.951827303367 327.9425220200108Q726.5712576367453 327.9425220200108 725.1249465574274 327.5919011522974Q723.7005492823415 327.2412802845839 722.6267728749691 326.78109039571007L722.6267728749691 326.78109039571007L721.0928065787227 318.23470674519496Q717.7838221396772 319.6152764118166 713.5763717271159 322.7051228085413Q709.3908351187868 325.7730554010339 706.059936875509 328.79716038506234L706.059936875509 328.79716038506234L706.059936875509 373.32601058466935L725.8700159013184 376.85413306603584L724.555187647393 382.9461706425569L679.7195441885368 382.9461706425569L681.0343724424622 376.24054654753735L692.2761540135243 372.4713722196178L692.2761540135243 323.1653126974152ZM781.0270611534892 373.78620047354326Q784.4894422221594 373.78620047354326 788.6968926347207 372.7781654788671Q792.8824292430498 371.770130484191 796.4324655286484 370.4333884260335Q799.982501814247 369.0747325636439 801.5164681104934 368.2420080028245L801.5164681104934 368.2420080028245L803.379141470221 370.93740592337156Q800.8371401792986 373.9395971031679 796.4762931371126 377.1609263252851Q792.1154460949267 380.40416935163444 786.7246502538326 382.63937738330765Q781.3338544127384 384.87458541498086 776.0964552012689 384.87458541498086L776.0964552012689 384.87458541498086Q767.2432782915046 384.87458541498086 760.1432057203073 381.1054110870613Q753.0650469533422 377.31432295490976 748.8356827365488 369.0747325636439Q744.5844047155233 360.835142172378 744.5844047155233 348.03748050083743L744.5844047155233 348.03748050083743Q744.5844047155233 336.8833541467036 748.9890793661734 327.67955636922574Q753.3718402125915 318.45384478751583 761.3484649530723 313.15070416335004Q769.3250896935531 307.82564973495215 779.4930948572428 307.82564973495215L779.4930948572428 307.82564973495215Q787.1190987300101 307.82564973495215 792.6194635922648 311.11272036976567Q798.1417422587515 314.3778772003471 801.0124506131552 319.96589727953005Q803.9050727717912 325.553917358713 803.9050727717912 332.4129380833572L803.9050727717912 332.4129380833572Q803.9050727717912 337.4969406652021 802.2834512586165 342.73433987667164L802.2834512586165 342.73433987667164Q801.8232613697426 344.1149095432933 801.1658472427799 344.7284960617918Q800.5303469200493 345.34208258029037 799.1278634491955 345.34208258029037L799.1278634491955 345.34208258029037L757.7546010590095 345.34208258029037Q758.3024461648117 352.7489484107368 761.3484649530723 359.25734826766757Q764.3944837413328 365.7657481245983 769.5004001274098 369.77597429907075Q774.6282303177188 373.78620047354326 781.0270611534892 373.78620047354326L781.0270611534892 373.78620047354326ZM772.0204876141001 316.8541370785733Q766.0818466672038 316.8541370785733 764.1534318947798 318.7606380467651L764.1534318947798 318.7606380467651Q762.0058790800349 320.99584607843826 760.0774643076111 326.518124744925Q758.1490495351871 332.0184896071796 757.7546010590095 339.57875206725066L757.7546010590095 339.57875206725066L791.1293249044827 336.94909555939984Q791.1293249044827 330.55026472362954 788.543496005096 326.01410724758694Q785.9576671057094 321.4779497715443 781.6406476719877 319.1550865229427Q777.3236282382659 316.8541370785733 772.0204876141001 316.8541370785733L772.0204876141001 316.8541370785733ZM824.788928204973 283.7862064923494L812.9335601154123 277.7818241327567L813.612888046607 274.1660464344618L838.5727110669577 269.5422337414908L838.5727110669577 373.238355367741L851.6771659977476 376.63499502371496L850.2965963311258 382.9461706425569L812.8459048984839 382.9461706425569L814.1607331524093 376.54733980678657L824.788928204973 373.238355367741L824.788928204973 283.7862064923494ZM856.4543753203432 337.716078707523L885.7969591871117 373.479407214294L897.6742410809046 377.0951849125888L896.4251542396754 382.9461706425569L869.0109851453308 382.9461706425569L870.0190201400069 377.862168060712L841.6625574636823 340.56487325769467L867.7838121083337 317.9279134859457L857.9226002038931 315.60505023734413L858.9963766112655 309.7540645073761L891.1877550282059 309.7540645073761L889.9605819912089 315.75844686696877L879.6391801978943 318.5415000044442L856.4543753203432 337.716078707523ZM929.4930848258994 341.6605634692992Q929.4930848258994 351.21498211449045 933.4594833919076 358.79715837879365Q937.4258819579159 366.3793346430968 944.4382993121848 370.6963540768185Q951.4507166664537 375.0133735105403 960.2162383592896 375.0133735105403L960.2162383592896 375.0133735105403Q964.9934476818853 375.0133735105403 968.8941048351974 373.479407214294Q972.7728481842771 371.92352711381557 975.643556538681 369.0747325636439L975.643556538681 369.0747325636439Q979.3250756496722 365.3712996484207 981.2534904220961 359.52031391845264Q983.1819051945199 353.66932818848454 983.1819051945199 346.1967209453419L983.1819051945199 346.1967209453419L983.1819051945199 287.2705013652517L967.9956388616816 282.7124300849769L969.2447257029107 276.3135992492066L1007.1336932201945 276.3135992492066L1005.9065201831974 282.86582671460155L994.1168935063329 287.2705013652517L994.1168935063329 346.59116942151945Q994.1168935063329 358.13974425183096 989.5369084218262 366.97100735736325Q984.9569233373193 375.78035665866344 975.9065221894662 380.7109626108837Q966.8561210416128 385.641568563104 953.992717957376 385.641568563104L953.992717957376 385.641568563104Q940.9540044392825 385.641568563104 932.1446551379822 380.7547902193479Q923.3133920324499 375.86801187559183 919.0182864029603 367.14631779122Q914.7012669692385 358.44653751108024 914.7012669692385 346.8103074638404L914.7012669692385 346.8103074638404L914.7012669692385 286.9637081060024L901.5091568215204 282.7124300849769L902.7582436627495 276.3135992492066L945.8846103915027 276.3135992492066L944.1972474656318 284.18065496852694L929.4930848258994 287.79643266682183L929.4930848258994 341.6605634692992ZM1039.105933594814 409.8344084353314L1058.3024261021246 413.5378413505547L1057.0752530651278 419.5422237101473L1013.0723341670908 419.5422237101473L1014.2337657913916 412.83659961512774L1025.3221507328292 409.06742528720827L1025.3221507328292 323.2310541101115L1013.4667826432685 317.2266717505188L1014.1461105744633 313.6108940522239L1035.2710178541981 308.9870813592529L1037.8787605578168 319.3961383694957Q1043.1161597692865 315.75844686696877 1046.7319374675812 313.56706644375976Q1050.3696289701081 311.37568602055075 1054.7962174249903 309.6883230946798Q1059.2228058798726 307.9790463645768 1063.5398253135943 307.9790463645768L1063.5398253135943 307.9790463645768Q1071.6260190752355 307.9790463645768 1077.4770048052035 312.2303243856023Q1083.3279905351717 316.45968860239566 1086.4616645403605 324.54588236403686Q1089.5734247413172 332.6320761256781 1089.5734247413172 343.8957715009724L1089.5734247413172 343.8957715009724Q1089.5734247413172 354.2829147069831 1085.3002329160597 363.72776433101393Q1081.0270410908022 373.17261395504477 1073.707830477284 378.8702030553882L1073.707830477284 378.8702030553882Q1070.2454494086137 381.56560097593524 1066.1256542129809 383.209136293342Q1062.005859017348 384.87458541498086 1057.6888395836263 384.87458541498086L1057.6888395836263 384.87458541498086Q1051.815940049426 384.87458541498086 1046.9729893141343 382.8585154256285Q1042.1300385788422 380.86435924050835 1039.105933594814 376.7883916533396L1039.105933594814 376.7883916533396L1039.105933594814 409.8344084353314ZM1038.7991403355645 323.6255025862891Q1039.105933594814 326.01410724758694 1039.105933594814 329.16969505700786L1039.105933594814 329.16969505700786L1039.105933594814 364.4509198706729Q1043.1161597692865 369.38152582289314 1049.5149906050565 371.61673385456635Q1055.913821440827 373.8519418862395 1062.3126522765972 373.8519418862395L1062.3126522765972 373.8519418862395Q1067.155603011889 373.8519418862395 1069.4784662604907 372.69051026193875L1069.4784662604907 372.69051026193875Q1070.9247773398088 372.01118233074396 1072.480657440287 368.76793930439464Q1074.0146237365334 365.5246962780453 1074.9788311227453 360.59409032582505Q1075.9430385089572 355.6634843736048 1075.9430385089572 350.20694711981434L1075.9430385089572 350.20694711981434Q1075.9430385089572 339.79789010957154 1072.743623091072 332.2595414537326Q1069.544207673187 324.6992789936615 1064.3068084617175 320.62331140649275L1064.3068084617175 320.62331140649275Q1062.1592556469727 318.93594848062185 1059.1351506629442 318.93594848062185L1059.1351506629442 318.93594848062185Q1055.913821440827 318.93594848062185 1049.86561147277 320.36034575570767Q1043.8174015047132 321.7847430307935 1038.7991403355645 323.6255025862891L1038.7991403355645 323.6255025862891Z " fill="white" transform="matrix(0.8030665010690561,0,0,0.8030665010690561,0,23.3096626700965)"/></g></svg>